<?xml version="1.0" standalone="no"?>
<!DOCTYPE svg PUBLIC "-//W3C//DTD SVG 20010904//EN"
 "http://www.w3.org/TR/2001/REC-SVG-20010904/DTD/svg10.dtd">
<svg version="1.0" xmlns="http://www.w3.org/2000/svg"
 width="628.000000pt" height="274.000000pt" viewBox="0 0 628.000000 274.000000"
 preserveAspectRatio="xMidYMid meet">

<g transform="translate(0.000000,274.000000) scale(0.100000,-0.100000)"
fill="#000000" stroke="none">
<path d="M3015 2728 c-3 -7 -4 -602 -3 -1322 l3 -1309 33 -1 32 -1 0 1323 0
1322 -30 0 c-17 0 -33 -6 -35 -12z"/>
<path d="M167 2413 c-2 -4 -8 -465 -12 -1024 -6 -896 -5 -1017 8 -1028 12 -9
128 -11 519 -9 554 4 531 2 677 71 79 37 207 159 244 232 75 151 76 309 2 455
-66 129 -202 238 -348 279 l-62 18 55 28 c77 39 198 164 234 240 16 33 35 95
44 138 14 69 14 85 0 155 -20 98 -56 173 -115 242 -66 75 -149 133 -246 172
l-82 33 -457 3 c-251 2 -458 0 -461 -5z m961 -85 c140 -51 248 -145 305 -266
29 -62 32 -75 32 -173 0 -101 -1 -108 -38 -181 -66 -135 -192 -233 -346 -270
-67 -16 -124 -18 -468 -18 l-393 0 0 471 0 470 418 -3 417 -3 73 -27z m117
-1001 c92 -31 148 -65 220 -137 130 -126 166 -297 99 -466 -22 -56 -42 -83
-103 -145 -49 -48 -96 -84 -132 -101 -119 -56 -124 -56 -633 -64 l-476 -7 0
477 0 477 473 -3 472 -4 80 -27z"/>
<path d="M4440 2380 l0 -30 385 0 385 0 0 -1005 0 -1005 30 0 30 0 0 1005 0
1005 380 0 380 0 0 30 0 30 -795 0 -795 0 0 -30z"/>
</g>
</svg>
